<?xml version="1.0" encoding="UTF-8"?>
<svg xmlns="http://www.w3.org/2000/svg" xmlns:xlink="http://www.w3.org/1999/xlink" viewBox="0 0 1374.23 1142.64">
  <defs>
    <style>
      .cls-1 {
        fill: url(#linear-gradient);
      }

      .cls-1, .cls-2 {
        mix-blend-mode: multiply;
      }

      .cls-1, .cls-2, .cls-3 {
        fill-rule: evenodd;
      }

      .cls-1, .cls-2, .cls-3, .cls-4 {
        stroke-width: 0px;
      }

      .cls-2 {
        fill: url(#linear-gradient-2);
      }

      .cls-5 {
        isolation: isolate;
      }

      .cls-3 {
        fill: #0e85ff;
      }

      .cls-4 {
        fill: url(#radial-gradient);
      }
    </style>
    <linearGradient id="linear-gradient" x1="955.56" y1="1267" x2="293.06" y2="-2.12" gradientUnits="userSpaceOnUse">
      <stop offset=".17" stop-color="#fff"/>
      <stop offset=".25" stop-color="#eee"/>
      <stop offset=".41" stop-color="#c2c2c2"/>
      <stop offset=".64" stop-color="#7c7c7c"/>
      <stop offset=".92" stop-color="#1d1d1d"/>
      <stop offset="1" stop-color="#000"/>
    </linearGradient>
    <linearGradient id="linear-gradient-2" x1="-434.54" y1="3109.04" x2="-163.16" y2="2635.45" gradientTransform="translate(344.95 3500.5) rotate(-180)" xlink:href="#linear-gradient"/>
    <radialGradient id="radial-gradient" cx="1054.43" cy="268.17" fx="1054.43" fy="268.17" r="329.76" gradientUnits="userSpaceOnUse">
      <stop offset="0" stop-color="#000"/>
      <stop offset=".07" stop-color="#02162b"/>
      <stop offset=".16" stop-color="#053363"/>
      <stop offset=".26" stop-color="#084c92"/>
      <stop offset=".36" stop-color="#0a60b9"/>
      <stop offset=".45" stop-color="#0b70d8"/>
      <stop offset=".54" stop-color="#0d7bed"/>
      <stop offset=".63" stop-color="#0d82fa"/>
      <stop offset=".71" stop-color="#0e85ff"/>
    </radialGradient>
  </defs>
  <g class="cls-5">
    <g id="Dimensions">
      <g>
        <g>
          <g id="Layer_1-2" data-name="Layer_1">
            <g id="_105553290467104" data-name=" 105553290467104">
              <path class="cls-3" d="M505.06.37C278.83,2.76,33.64,58.25,2.45,322.73c-27.1,229.8,176.15,507.78,319.62,673.99,100.29,116.18,199.29,156.41,291.88,143.66-33.99-8.54-68.44-33.65-103.02-80.45C102.83,507.65,201.34,363.71,499.75,333.44c23.33-2.92,43.62-4.77,55.57-5.75,78.4-6.45,194.27-8.59,327.65-13.62,197.73-7.46,198.01-300.62.28-308.03C767,1.68,641.29-1.05,505.04.39h.03Z"/>
              <path class="cls-3" d="M1010.96,329.56c-128.2,47.84-307.1,415.23-407.36,484.15-110.74-183.88-163.78-238.95-228.96-443.53,19.72,103.67,100.25,250.36,227.18,440.98,8.71,13.07,18.68,25.76,28.46,38.98,142.24,192.49,283.88,21.05,396.52-164.24l.04-.44c2.97-4.89,5.88-9.6,8.73-14.12,21.75-36.36,42.35-72.91,61.61-107,15.88-28.12,30.84-54.58,44.76-77.9,51.89-86.94-33.06-191.81-128.43-157.81-.85.3-1.7.61-2.55.93h.01Z"/>
              <path class="cls-3" d="M1026.8,685.89c-112.63,185.29-254.28,356.74-396.52,164.24-9.78-13.22-19.75-25.91-28.46-38.98-126.93-190.62-207.45-337.31-227.18-440.98-.89-2.77-1.77-5.59-2.66-8.42.36-.17.74-.34,1.1-.49-.17-1.07-.34-2.13-.49-3.19-189.82,62.48-204.13,238.37,138.35,701.84,34.58,46.8,69.04,71.92,103.02,80.45,187.11-25.8,332.73-288.68,412.83-454.47h-.01Z"/>
            </g>
          </g>
          <path class="cls-1" d="M1026.8,685.89c-112.63,185.29-254.28,356.74-396.52,164.24-9.78-13.22-19.75-25.91-28.46-38.98-126.93-190.62-207.45-337.31-227.18-440.98-.89-2.77-1.77-5.59-2.66-8.42.36-.17.74-.34,1.1-.49-.17-1.07-.34-2.13-.49-3.19-189.82,62.48-204.13,238.37,138.35,701.84,34.58,46.8,69.04,71.92,103.02,80.45,187.11-25.8,332.73-288.68,412.83-454.47h-.01Z"/>
          <path class="cls-2" d="M1010.96,329.56c-128.2,47.84-307.1,415.23-407.36,484.15-110.74-183.88-163.78-238.95-228.96-443.53,19.72,103.67,100.25,250.36,227.18,440.98,8.71,13.07,18.68,25.76,28.46,38.98,142.24,192.49,283.88,21.05,396.52-164.24l.04-.44c2.97-4.89,5.88-9.6,8.73-14.12,21.75-36.36,42.35-72.91,61.61-107,15.88-28.12,30.84-54.58,44.76-77.9,51.89-86.94-33.06-191.81-128.43-157.81-.85.3-1.7.61-2.55.93h.01Z"/>
        </g>
        <circle class="cls-4" cx="1222.21" cy="161.93" r="152.02"/>
      </g>
    </g>
  </g>
</svg>